<?xml version="1.0" standalone="no"?>
<!DOCTYPE svg PUBLIC "-//W3C//DTD SVG 20010904//EN"
 "http://www.w3.org/TR/2001/REC-SVG-20010904/DTD/svg10.dtd">
<svg version="1.0" xmlns="http://www.w3.org/2000/svg"
 width="128.000000pt" height="128.000000pt" viewBox="0 0 128.000000 128.000000"
 preserveAspectRatio="xMidYMid meet">

<g transform="translate(0.000000,128.000000) scale(0.100000,-0.100000)"
fill="#000000" stroke="none">
<path d="M505 1264 c-182 -39 -353 -170 -433 -334 -127 -257 -82 -540 118
-740 386 -386 1044 -142 1086 402 33 423 -354 759 -771 672z m179 -245 c19
-15 26 -30 26 -55 0 -33 -28 -74 -50 -74 -5 0 -10 -11 -10 -25 0 -14 -4 -25
-10 -25 -5 0 -10 11 -10 24 0 16 -7 27 -20 31 -32 10 -52 57 -39 93 17 50 70
65 113 31z m230 -230 l26 -20 0 -179 c0 -228 3 -223 -136 -230 l-98 -5 -30
-52 c-17 -29 -33 -53 -37 -53 -4 0 -21 25 -38 55 l-31 55 -89 0 c-74 0 -93 3
-115 21 l-26 20 0 182 c0 248 -28 227 295 227 240 0 254 -1 279 -21z m-604
-204 c0 -129 -2 -135 -41 -115 -17 10 -19 22 -19 113 0 106 7 127 42 127 16 0
18 -11 18 -125z m708 113 c8 -8 12 -47 12 -109 0 -100 -10 -129 -46 -129 -11
0 -14 23 -14 125 0 114 2 125 18 125 10 0 23 -5 30 -12z"/>
<path d="M436 674 c-34 -33 -4 -104 44 -104 27 0 60 35 60 63 0 49 -70 76
-104 41z m62 -13 c20 -12 11 -55 -12 -59 -27 -6 -48 25 -35 49 10 20 26 24 47
10z"/>
<path d="M756 674 c-36 -36 -6 -104 46 -104 25 0 58 36 58 63 0 49 -70 76
-104 41z m62 -13 c20 -12 11 -55 -12 -59 -27 -6 -48 25 -35 49 10 20 26 24 47
10z"/>
<path d="M540 507 c0 -8 12 -24 26 -38 20 -19 37 -24 74 -24 37 0 54 5 74 24
25 24 35 51 18 51 -5 0 -19 -11 -32 -25 -32 -34 -89 -34 -121 0 -27 28 -39 31
-39 12z"/>
</g>
</svg>
