<?xml version="1.0" standalone="no"?>
<!DOCTYPE svg PUBLIC "-//W3C//DTD SVG 20010904//EN"
 "http://www.w3.org/TR/2001/REC-SVG-20010904/DTD/svg10.dtd">
<svg version="1.0" xmlns="http://www.w3.org/2000/svg"
 width="128.000000pt" height="128.000000pt" viewBox="0 0 128.000000 128.000000"
 preserveAspectRatio="xMidYMid meet">

<g transform="translate(0.000000,128.000000) scale(0.100000,-0.100000)"
fill="#000000" stroke="none">
<path d="M646 1239 l-26 -20 0 -155 c0 -141 2 -156 20 -174 11 -11 31 -20 45
-20 21 0 25 -5 25 -30 l0 -30 -145 0 -145 0 0 49 c0 30 5 53 14 60 24 20 29
66 12 100 -19 36 -44 51 -86 51 -39 0 -90 -47 -90 -84 0 -29 19 -76 32 -76 4
0 8 -26 8 -57 -1 -53 -3 -60 -31 -78 -30 -19 -51 -49 -63 -87 -4 -14 -16 -18
-50 -18 -33 0 -52 -6 -73 -24 -27 -24 -28 -27 -28 -126 0 -99 1 -102 28 -126
21 -17 40 -24 72 -24 42 0 45 -2 63 -43 12 -27 33 -52 54 -65 34 -21 47 -22
287 -22 l251 0 39 36 c22 19 43 48 46 65 5 20 13 29 26 29 17 0 19 -8 19 -83
0 -121 0 -121 -154 -125 -115 -3 -128 -2 -152 17 -40 32 -123 29 -163 -5 -52
-43 -39 -113 24 -140 47 -19 84 -18 128 6 31 17 56 20 164 20 147 0 191 14
233 77 25 36 25 41 28 259 l4 223 -26 26 c-20 20 -35 25 -74 25 -46 0 -50 2
-55 28 -6 29 -46 77 -82 99 -19 12 -19 13 13 43 l32 30 154 0 c198 0 190 -7
194 172 4 145 0 170 -28 198 -19 19 -34 20 -269 20 -236 0 -250 -1 -275 -21z
m522 -31 c15 -15 17 -265 2 -288 -7 -12 -40 -16 -167 -18 l-158 -3 -47 -46
-47 -46 -3 44 c-3 41 -5 44 -38 50 -18 4 -40 15 -47 25 -16 22 -18 246 -3 275
10 18 24 19 253 19 176 0 246 -3 255 -12z m-763 -198 c23 -25 13 -67 -20 -82
-52 -23 -100 46 -59 86 21 22 57 20 79 -4z m-25 -165 c0 -24 -5 -35 -15 -35
-10 0 -15 11 -15 35 0 24 5 35 15 35 10 0 15 -11 15 -35z m330 -90 c0 -19 19
-19 41 0 37 34 111 -20 125 -90 3 -18 4 -96 2 -172 -5 -223 -9 -226 -334 -221
l-224 3 -32 33 -33 32 -3 169 c-5 259 -4 260 276 261 155 0 182 -2 182 -15z
m-500 -235 l0 -110 -45 0 c-34 0 -47 5 -55 19 -14 28 -13 174 2 189 7 7 31 12
55 12 l43 0 0 -110z m810 84 c16 -41 12 -146 -6 -172 -12 -17 -25 -22 -60 -22
l-44 0 0 110 0 110 50 0 c45 0 52 -3 60 -26z m-9 -415 c-6 -19 -22 -46 -37
-60 -24 -23 -33 -24 -160 -27 -117 -3 -134 -2 -134 12 0 14 18 16 124 16 118
0 127 1 153 24 26 23 28 30 32 118 2 55 8 96 15 100 15 10 21 -135 7 -183z
m-412 -30 c42 -15 53 -55 21 -81 -32 -26 -86 -23 -115 6 -30 30 -24 53 19 72
38 16 36 16 75 3z"/>
<path d="M732 1168 c-19 -19 -15 -66 7 -78 11 -6 90 -10 185 -10 166 0 166 0
182 25 15 23 15 27 0 50 l-16 25 -173 0 c-121 0 -177 -4 -185 -12z m348 -38
c0 -6 -60 -10 -160 -10 -100 0 -160 4 -160 10 0 6 60 10 160 10 100 0 160 -4
160 -10z"/>
<path d="M742 1034 c-24 -17 -29 -53 -10 -72 8 -8 65 -12 190 -12 165 0 178 1
188 19 14 28 13 38 -10 61 -18 18 -33 20 -178 20 -126 0 -162 -3 -180 -16z
m331 -39 c-3 -10 -286 -20 -311 -10 -7 3 -10 10 -7 15 9 14 321 9 318 -5z"/>
<path d="M362 667 c-45 -48 -21 -127 45 -143 53 -14 112 48 99 101 -16 63
-101 88 -144 42z m88 -25 c18 -14 21 -25 16 -45 -9 -38 -53 -48 -78 -17 -23
28 -23 35 2 60 25 25 32 25 60 2z"/>
<path d="M645 665 c-35 -34 -33 -78 4 -116 36 -36 70 -37 110 -3 61 51 26 144
-54 144 -25 0 -44 -8 -60 -25z m102 -43 c7 -31 -7 -56 -36 -60 -48 -7 -70 53
-30 81 28 20 58 10 66 -21z"/>
<path d="M385 460 c-13 -21 16 -79 51 -100 30 -19 46 -21 138 -18 87 2 108 6
126 23 26 23 53 81 45 95 -8 14 -352 13 -360 0z m315 -39 c0 -6 -10 -17 -22
-25 -17 -12 -48 -16 -118 -16 -90 0 -98 2 -120 25 l-23 25 141 0 c82 0 142 -4
142 -9z"/>
</g>
</svg>
