<?xml version="1.0" standalone="no"?>
<!DOCTYPE svg PUBLIC "-//W3C//DTD SVG 20010904//EN"
 "http://www.w3.org/TR/2001/REC-SVG-20010904/DTD/svg10.dtd">
<svg version="1.0" xmlns="http://www.w3.org/2000/svg"
 width="128.000000pt" height="128.000000pt" viewBox="0 0 128.000000 128.000000"
 preserveAspectRatio="xMidYMid meet">

<g transform="translate(0.000000,128.000000) scale(0.100000,-0.100000)"
fill="#000000" stroke="none">
<path d="M612 911 c-282 -148 -519 -274 -527 -281 -21 -17 -19 -73 3 -93 9 -9
90 -40 178 -70 l161 -55 272 254 c149 140 274 254 277 254 3 0 -21 -33 -53
-72 -112 -138 -366 -453 -375 -464 -6 -8 67 -37 233 -94 206 -70 244 -81 265
-71 13 6 28 21 33 33 11 29 131 823 131 865 0 35 -29 63 -65 63 -11 0 -251
-121 -533 -269z"/>
<path d="M470 243 c0 -86 3 -102 20 -121 37 -39 69 -29 159 50 45 39 78 75 74
78 -5 4 -57 24 -118 45 -60 21 -116 40 -122 43 -10 3 -13 -20 -13 -95z"/>
</g>
</svg>
